<svg width="22" height="22" viewBox="0 0 22 22" fill="none" xmlns="http://www.w3.org/2000/svg">
<path d="M18.5 3.22229H3.5C2.83696 3.22229 2.20107 3.45642 1.73223 3.87316C1.26339 4.28991 1 4.85514 1 5.44451V18.7778C1 19.3672 1.26339 19.9324 1.73223 20.3492C2.20107 20.7659 2.83696 21.0001 3.5 21.0001H18.5C19.163 21.0001 19.7989 20.7659 20.2678 20.3492C20.7366 19.9324 21 19.3672 21 18.7778V5.44451C21 4.85514 20.7366 4.28991 20.2678 3.87316C19.7989 3.45642 19.163 3.22229 18.5 3.22229Z" stroke="#251A18" stroke-width="2" stroke-linecap="round" stroke-linejoin="round"/>
<path d="M16 1V5.44444" stroke="#251A18" stroke-width="2" stroke-linecap="round" stroke-linejoin="round"/>
<path d="M6 1V5.44444" stroke="#251A18" stroke-width="2" stroke-linecap="round" stroke-linejoin="round"/>
<path d="M1 9.88885H21" stroke="#251A18" stroke-width="2" stroke-linecap="round" stroke-linejoin="round"/>
<path d="M8.5 14.3334H6V16.5557H8.5V14.3334Z" stroke="#251A18" stroke-width="2" stroke-linecap="round" stroke-linejoin="round"/>
</svg>
