<svg width="34" height="33" viewBox="0 0 34 33" fill="none" xmlns="http://www.w3.org/2000/svg">
<path d="M2 8.4165H32" stroke="#251A18" stroke-width="2.5" stroke-linecap="round" stroke-linejoin="round"/>
<path d="M13.25 15.0835V25.0835" stroke="#251A18" stroke-width="2.5" stroke-linecap="round" stroke-linejoin="round"/>
<path d="M20.75 15.0835V25.0835" stroke="#251A18" stroke-width="2.5" stroke-linecap="round" stroke-linejoin="round"/>
<path d="M3.875 8.4165L5.75 28.4165C5.75 29.3006 6.14509 30.1484 6.84835 30.7735C7.55161 31.3986 8.50544 31.7498 9.5 31.7498H24.5C25.4946 31.7498 26.4484 31.3986 27.1516 30.7735C27.8549 30.1484 28.25 29.3006 28.25 28.4165L30.125 8.4165" stroke="#251A18" stroke-width="2.5" stroke-linecap="round" stroke-linejoin="round"/>
<path d="M11.375 8.41667V3.41667C11.375 2.97464 11.5725 2.55072 11.9242 2.23816C12.2758 1.92559 12.7527 1.75 13.25 1.75H20.75C21.2473 1.75 21.7242 1.92559 22.0758 2.23816C22.4275 2.55072 22.625 2.97464 22.625 3.41667V8.41667" stroke="#251A18" stroke-width="2.5" stroke-linecap="round" stroke-linejoin="round"/>
</svg>
