<svg width="34" height="33" viewBox="0 0 34 33" fill="none" xmlns="http://www.w3.org/2000/svg">
<path d="M10.761 8.81982H5.5044C4.57498 8.81982 3.68362 9.18895 3.02642 9.846C2.36921 10.503 2 11.3942 2 12.3234V28.0895C2 29.0187 2.36921 29.9098 3.02642 30.5669C3.68362 31.2239 4.57498 31.593 5.5044 31.593H21.2742C22.2036 31.593 23.095 31.2239 23.7522 30.5669C24.4094 29.9098 24.7786 29.0187 24.7786 28.0895V22.8341" stroke="#251A18" stroke-width="2.5" stroke-linecap="round" stroke-linejoin="round"/>
<path d="M10.7612 22.8272H16.0178L30.9115 7.93704C31.2567 7.59196 31.5305 7.1823 31.7173 6.73145C31.9041 6.28059 32.0002 5.79736 32.0002 5.30936C32.0002 4.82135 31.9041 4.33813 31.7173 3.88727C31.5305 3.43641 31.2567 3.02675 30.9115 2.68168C30.5664 2.33661 30.1566 2.06288 29.7057 1.87613C29.2547 1.68938 28.7714 1.59326 28.2832 1.59326C27.2974 1.59326 26.352 1.98478 25.6549 2.68168L10.7612 17.5719V22.8272Z" stroke="#251A18" stroke-width="2.5" stroke-linecap="round" stroke-linejoin="round"/>
<path d="M23.0264 5.31641L28.283 10.5718" stroke="#251A18" stroke-width="2.5" stroke-linecap="round" stroke-linejoin="round"/>
</svg>
