<svg id="Слой_1" data-name="Слой 1" xmlns="http://www.w3.org/2000/svg" viewBox="0 0 120 120"><defs><style>.cls-1,.cls-6{fill:#a58548;}.cls-2{fill:#997b43;}.cls-3{fill:#8c713e;}.cls-4{fill:#806738;}.cls-5{fill:#735c32;}.cls-6{font-size:36.77px;font-family:Philosopher;}</style></defs><path class="cls-1" d="M41,0c-3,.34-22,11.86-11.64,26.64L51.65,42.33,49.36,30.84C50.54,28.25,31.47,13,41,0Z"/><path class="cls-2" d="M51.65,42.33,29.33,26.64,23.41,17S16.54,28.65,22.65,35s30,11.5,30,11.5Z"/><path class="cls-3" d="M52.61,46.53,28.7,39s-10.06-5.21-9.87-6.31-1.53,10.4,5,13.87,28.82,2,28.82,2Z"/><path class="cls-4" d="M52.61,48.54l-20.24-.09L20.12,46.53s5.77,11.31,12.26,10.4l21.37-6.57Z"/><path class="cls-5" d="M53.75,50.36,32.38,56.93,24.94,56S30,63.68,35.68,63.5,54.9,52,54.9,52Z"/><polygon class="cls-5" points="52.61 48.54 54.9 45.07 58.72 50.36 60.04 47.37 60.04 56.93 54.9 51.95 53.75 50.36 52.61 48.54"/><polygon class="cls-3" points="49.37 30.84 54.9 39.41 60.04 35.13 60.04 47.37 58.72 50.36 54.9 45.07 52.61 48.54 49.37 30.84"/><path class="cls-1" d="M54.3,58.62,42.22,69.15s-.86,5.48,4.58,3.29L52,65.78,49.38,72s.57,5.61,5.72,1.91l2-7.93v8.34S58.8,76.73,60,76.59V63.5Z"/><path class="cls-3" d="M54.3,58.62,43.2,68.53s-.81,5.14,4.31,3.08L52,65.78l-2.08,5.45s.54,5.28,5.39,1.8l1.79-7,.09,7.41s1.59,2.23,2.76,2.1l.08-12Z"/><path class="cls-1" d="M79,0c3,.34,22,11.86,11.64,26.64L68.35,42.33l2.29-11.49C69.46,28.25,88.53,13,79,0Z"/><path class="cls-2" d="M68.35,42.33,90.67,26.64,96.59,17s6.87,11.68.76,18.06-30,11.5-30,11.5Z"/><path class="cls-3" d="M67.39,46.53,91.3,39s10.06-5.21,9.87-6.31,1.53,10.4-5,13.87-28.82,2-28.82,2Z"/><path class="cls-4" d="M67.39,48.54l20.24-.09,12.25-1.92s-5.77,11.31-12.26,10.4L66.25,50.36Z"/><path class="cls-5" d="M66.25,50.36l21.37,6.57L95.06,56S90,63.68,84.32,63.5,65.1,52,65.1,52Z"/><polygon class="cls-5" points="67.39 48.54 65.1 45.07 61.28 50.36 59.96 47.37 59.96 56.93 65.1 51.95 66.25 50.36 67.39 48.54"/><polygon class="cls-3" points="70.64 30.84 65.1 39.41 59.96 35.13 59.96 47.37 61.28 50.36 65.1 45.07 67.39 48.54 70.64 30.84"/><path class="cls-1" d="M65.7,58.62,77.78,69.15s.86,5.48-4.58,3.29L68,65.78,70.62,72s-.57,5.61-5.72,1.91l-2-7.93v8.34S61.2,76.73,60,76.59V63.5Z"/><path class="cls-3" d="M65.64,58.62l11.1,9.91s.81,5.14-4.31,3.08l-4.5-5.83L70,71.23s-.54,5.28-5.38,1.8l-1.79-7-.1,7.41s-1.59,2.23-2.76,2.1l-.08-12Z"/><path class="cls-1" d="M64,27.83l-.28-1.29-6.57-2.19v3.1l-4.58,8.49,2.29,3.55L60,35.2l5.14,4.29,1.06-1.64-2.48-6c2.64-3,4,2.05,4.1-1.19S63.65,28.12,64,27.83Zm-2.68.2-.72-.24a.81.81,0,0,1,.72-.79l1.79.89Z"/><text class="cls-6" transform="translate(0 112.21) scale(1.08 1)">Liberta</text></svg>