<svg width="20" height="20" viewBox="0 0 20 20" fill="none" xmlns="http://www.w3.org/2000/svg">
<path d="M10 0C8.02225 0 6.08879 0.586487 4.4443 1.6853C2.79981 2.78411 1.51809 4.3459 0.761212 6.17316C0.00433691 8.00037 -0.193701 10.0111 0.192149 11.9509C0.577999 13.8907 1.53041 15.6725 2.92894 17.0711C4.32746 18.4696 6.10929 19.422 8.04912 19.8079C9.98887 20.1937 11.9996 19.9956 13.8269 19.2387C15.6541 18.4819 17.2159 17.2002 18.3147 15.5557C19.4135 13.9112 20 11.9779 20 10C20 7.34784 18.9464 4.8043 17.0711 2.92894C15.1957 1.05356 12.6521 0 10 0ZM14.9125 6.85L13.275 14.5875C13.15 15.1375 12.825 15.2625 12.3625 15.0125L9.8625 13.1625L8.6125 14.325C8.55362 14.4019 8.478 14.4644 8.39137 14.5077C8.30475 14.551 8.20937 14.574 8.1125 14.575L8.2875 12.075L12.9125 7.8875C13.125 7.7125 12.9125 7.6125 12.6125 7.7875L6.9375 11.35L4.4375 10.575C3.9 10.4125 3.8875 10.0375 4.55 9.7875L14.1875 6.0375C14.6625 5.9 15.0625 6.175 14.9125 6.85Z" fill="#FAF6EF"/>
</svg>
