<svg width="20" height="12" viewBox="0 0 20 12" fill="none" xmlns="http://www.w3.org/2000/svg">
<path d="M12.1106 5.49733C11.7449 5.36223 11.7449 4.84628 11.7222 4.48698C11.6308 3.20717 12.0879 1.25332 11.5394 0.422622C11.151 -0.0717699 9.27636 -0.0264986 8.13388 0.0410492C7.81352 0.0863205 7.42513 0.15315 7.15085 0.288246C6.87657 0.423341 6.60229 0.647542 6.60229 0.849466C6.60229 1.14122 7.28836 1.09666 7.53923 1.47824C7.81352 1.8828 7.81352 2.75805 7.81352 3.47664C7.81352 4.30734 7.67601 5.40822 7.33371 5.45277C6.80782 5.47505 6.51086 4.95838 6.23658 4.57681C5.68801 3.83594 5.13945 2.9147 4.72766 2.01646C4.52213 1.54506 4.4073 1.0284 4.11034 0.826472C3.6532 0.511728 2.83036 0.489452 2.03018 0.511728C1.29876 0.534004 0.246983 0.44418 0.0414545 0.871025C-0.118726 1.34242 0.224309 1.79154 0.407164 2.17383C1.34411 4.17224 2.34981 5.92417 3.58445 7.58556C4.72766 9.13484 5.80138 10.3701 7.90421 11.0212C8.49886 11.2008 11.1042 11.7175 11.6301 11.0212C11.8129 10.7517 11.7676 10.1452 11.859 9.69607C11.9504 9.24694 12.0645 8.79782 12.499 8.77555C12.8647 8.75327 13.0702 9.0673 13.2992 9.29222C13.5508 9.53941 13.7563 9.74134 13.9392 9.96626C14.3736 10.3931 14.8308 10.9766 15.3793 11.2015C16.1334 11.5163 17.2993 11.4264 18.3964 11.3812C19.288 11.3589 19.928 11.1792 19.9968 10.6626C20.0428 10.258 19.585 9.67451 19.3107 9.33749C18.6246 8.50679 18.305 8.2596 17.5275 7.49573C17.1845 7.15871 16.75 6.79942 16.75 6.39557C16.7273 6.14837 16.9329 5.92417 17.1157 5.67697C17.9159 4.50926 18.7161 3.67857 19.4475 2.46558C19.653 2.10629 20.1335 1.27559 19.9507 0.871025C19.7452 0.421904 18.602 0.55628 17.8932 0.55628C16.9789 0.55628 15.7904 0.488733 15.5614 0.668381C15.127 0.96013 14.9441 1.43225 14.7386 1.88137C14.2815 2.9147 13.6641 3.9696 13.0241 4.75574C12.7952 5.02521 12.3615 5.58643 12.1099 5.49661L12.1106 5.49733Z" fill="#FAF6EF"/>
</svg>
