<svg width="73" height="66" viewBox="0 0 73 66" fill="none" xmlns="http://www.w3.org/2000/svg">
<path d="M3 59.665C3.75721 60.72 4.75984 61.5747 5.92131 62.1555C7.08277 62.7362 8.36815 63.0254 9.66642 62.9983C10.9647 63.0254 12.2501 62.7362 13.4115 62.1555C14.573 61.5747 15.5756 60.72 16.3328 59.665C17.09 58.6101 18.0927 57.7554 19.2541 57.1746C20.4156 56.5939 21.701 56.3046 22.9993 56.3318C24.2975 56.3046 25.5829 56.5939 26.7444 57.1746C27.9058 57.7554 28.9085 58.6101 29.6657 59.665C30.4229 60.72 31.4255 61.5747 32.587 62.1555C33.7485 62.7362 35.0338 63.0254 36.3321 62.9983C37.6304 63.0254 38.9158 62.7362 40.0772 62.1555C41.2387 61.5747 42.2413 60.72 42.9985 59.665C43.7557 58.6101 44.7584 57.7554 45.9198 57.1746C47.0813 56.5939 48.3667 56.3046 49.6649 56.3318C50.9632 56.3046 52.2486 56.5939 53.4101 57.1746C54.5715 57.7554 55.5742 58.6101 56.3314 59.665C57.0886 60.72 58.0912 61.5747 59.2527 62.1555C60.4141 62.7362 61.6995 63.0254 62.9978 62.9983C64.2961 63.0254 65.5814 62.7362 66.7429 62.1555C67.9044 61.5747 68.907 60.72 69.6642 59.665" stroke="#A58548" stroke-width="6" stroke-linecap="round" stroke-linejoin="round"/>
<path d="M3 46.332C3.75721 47.387 4.75984 48.2417 5.92131 48.8225C7.08277 49.4032 8.36815 49.6924 9.66642 49.6652C10.9647 49.6924 12.2501 49.4032 13.4115 48.8225C14.573 48.2417 15.5756 47.387 16.3328 46.332C17.09 45.2771 18.0927 44.4224 19.2541 43.8416C20.4156 43.2609 21.701 42.9716 22.9993 42.9988C24.2975 42.9716 25.5829 43.2609 26.7444 43.8416C27.9058 44.4224 28.9085 45.2771 29.6657 46.332C30.4229 47.387 31.4255 48.2417 32.587 48.8225C33.7485 49.4032 35.0338 49.6924 36.3321 49.6652C37.6304 49.6924 38.9158 49.4032 40.0772 48.8225C41.2387 48.2417 42.2413 47.387 42.9985 46.332C43.7557 45.2771 44.7584 44.4224 45.9198 43.8416C47.0813 43.2609 48.3667 42.9716 49.6649 42.9988C50.9632 42.9716 52.2486 43.2609 53.4101 43.8416C54.5715 44.4224 55.5742 45.2771 56.3314 46.332C57.0886 47.387 58.0912 48.2417 59.2527 48.8225C60.4141 49.4032 61.6995 49.6924 62.9978 49.6652C64.2961 49.6924 65.5814 49.4032 66.7429 48.8225C67.9044 48.2417 68.907 47.387 69.6642 46.332" stroke="#A58548" stroke-width="6" stroke-linecap="round" stroke-linejoin="round"/>
<path d="M46.3318 32.9989V7.99982C46.3318 6.67378 46.8586 5.40206 47.7962 4.46441C48.7338 3.52676 50.0056 3 51.3316 3C52.6576 3 53.9294 3.52676 54.867 4.46441C55.8047 5.40206 56.3314 6.67378 56.3314 7.99982" stroke="#A58548" stroke-width="6" stroke-linecap="round" stroke-linejoin="round"/>
<path d="M26.3324 32.9989V7.99982C26.3324 6.67378 25.8056 5.40206 24.868 4.46441C23.9303 3.52676 22.6586 3 21.3326 3C20.0065 3 18.7348 3.52676 17.7972 4.46441C16.8595 5.40206 16.3328 6.67378 16.3328 7.99982" stroke="#A58548" stroke-width="6" stroke-linecap="round" stroke-linejoin="round"/>
<path d="M46.3318 9.6665H26.3325" stroke="#A58548" stroke-width="6" stroke-linecap="round" stroke-linejoin="round"/>
<path d="M26.3325 26.3325H46.3318" stroke="#A58548" stroke-width="6" stroke-linecap="round" stroke-linejoin="round"/>
</svg>
