<svg width="66" height="66" viewBox="0 0 66 66" fill="none" xmlns="http://www.w3.org/2000/svg">
<path d="M55.5 3H10.5C8.51088 3 6.60322 3.79018 5.1967 5.1967C3.79018 6.60322 3 8.51088 3 10.5V55.5C3 57.4891 3.79018 59.3968 5.1967 60.8033C6.60322 62.2098 8.51088 63 10.5 63H55.5C57.4891 63 59.3968 62.2098 60.8033 60.8033C62.2098 59.3968 63 57.4891 63 55.5V10.5C63 8.51088 62.2098 6.60322 60.8033 5.1967C59.3968 3.79018 57.4891 3 55.5 3Z" stroke="#A58548" stroke-width="6" stroke-linecap="round" stroke-linejoin="round"/>
<path d="M21.75 48V18H36.75C38.7391 18 40.6468 18.7902 42.0533 20.1967C43.4598 21.6032 44.25 23.5109 44.25 25.5C44.25 27.4891 43.4598 29.3968 42.0533 30.8033C40.6468 32.2098 38.7391 33 36.75 33H21.75" stroke="#A58548" stroke-width="6" stroke-linecap="round" stroke-linejoin="round"/>
</svg>
